# xmcd
# 
# Track frame offsets:
#     150
#     17557
#     32182
#     54812
#     72560
#     93210
#     113232
#     128017
#     150332
#     166395
# 
# Disc length: 2475
# 
# Revision: 1
# Processed by: cddbd v1.5.2PL0 Copyright (c) Steve Scherf et al.
# Submitted via: BonkEnc v1.0.8
# 
DISCID=7309a90a
DTITLE=蔡依林 - LOVE EXERCISE
DYEAR=2008
DGENRE=Pop
TTITLE0=Get The Party Started
TTITLE1=Kiss Me
TTITLE2=I Wont Last A Day Without You
TTITLE3=Physical
TTITLE4=Angel
TTITLE5=Lady Marmalade
TTITLE6=Lovefool
TTITLE7=The Blowers Daughter
TTITLE8=Thank You
TTITLE9=When You Say Nothing At All
EXTD=
EXTT0=
EXTT1=
EXTT2=
EXTT3=
EXTT4=
EXTT5=
EXTT6=
EXTT7=
EXTT8=
EXTT9=
PLAYORDER=
